<svg xmlns="http://www.w3.org/2000/svg" height="20" viewBox="0 96 960 960" width="20"><path d="M763 911q-123-10-232-61.5T339.5 715Q257 632 205 523t-61-232q-2-21 12.286-36.5Q170.571 239 192 239h136q17 0 29.5 10t16.5 27l24 107q2 12-1 24t-12 21l-97 98q42 76 103 137t137 103l99-96q10-10 21.802-12.5Q660.605 655 672 657l107 23q17 4 27 16.9 10 12.9 10 30.1v136q0 27-19 38t-34 10ZM255 456l70-70-17.16-75H218q5 38 14 74t23 71Zm344 344q35.1 14.243 71.55 22.622Q707 831 744 836v-90l-75-16-70 70ZM255 456Zm344 344Z"/></svg>