<svg xmlns="http://www.w3.org/2000/svg" height="20" viewBox="0 96 960 960" width="20"><path d="M528 576h288V384H528v192Zm144-41-108-72v-43l108 72 108-72v43l-108 72ZM72 912q-29.7 0-50.85-21.15Q0 869.7 0 840V312q0-29.7 21.15-50.85Q42.3 240 72 240h816q29.7 0 50.85 21.15Q960 282.3 960 312v528q0 29.7-21.15 50.85Q917.7 912 888 912H72Zm520.811-72H888V312H72v528q52-56 120-88t143.5-32q75.5 0 141 32.5T592.811 840ZM336 672q50 0 85-35t35-85q0-50-35-85t-85-35q-50 0-85 35t-35 85q0 50 35 85t85 35ZM185 840h299q-33-22-70.5-35t-78-13q-40.5 0-79.5 11.5T185 840Zm151-240q-20.4 0-34.2-13.8Q288 572.4 288 552q0-20.4 13.8-34.2Q315.6 504 336 504q20.4 0 34.2 13.8Q384 531.6 384 552q0 20.4-13.8 34.2Q356.4 600 336 600Zm144-24Z"/></svg>